<svg width="556" height="122" viewBox="0 0 556 122" fill="none" xmlns="http://www.w3.org/2000/svg">
<path d="M119.128 56.6485V65.5669C119.128 82.0825 113.843 95.4601 103.273 105.7C92.703 115.939 79.0501 121.059 62.3143 121.059C44.4775 121.059 29.6685 115.279 17.8874 103.718C6.21637 92.0469 0.380859 77.8435 0.380859 61.1077C0.380859 44.2618 6.16132 30.0033 17.7222 18.3323C29.3932 6.66129 43.8169 0.825778 60.9931 0.825778C71.7832 0.825778 81.6375 3.30312 90.556 8.25779C99.4744 13.1024 106.411 19.5985 111.366 27.7462L91.8772 38.9768C89.1246 34.2423 84.9407 30.3887 79.3254 27.4159C73.8202 24.4431 67.6544 22.9567 60.8279 22.9567C49.8175 22.9567 40.7339 26.5901 33.5772 33.857C26.5305 41.0137 23.0072 50.0973 23.0072 61.1077C23.0072 72.008 26.5856 81.0365 33.7423 88.1932C41.0092 95.2399 50.5882 98.7632 62.4795 98.7632C71.2878 98.7632 78.5546 96.8364 84.28 92.9827C90.1155 89.019 94.0793 83.6239 96.1713 76.7975H61.1582V56.6485H119.128Z" fill="#111111"/>
<path d="M144.918 26.2598C141.395 26.2598 138.312 24.9936 135.669 22.4612C133.137 19.8187 131.871 16.7358 131.871 13.2125C131.871 9.68915 133.137 6.60624 135.669 3.96374C138.312 1.32125 141.395 0 144.918 0C148.551 0 151.634 1.32125 154.167 3.96374C156.809 6.60624 158.131 9.68915 158.131 13.2125C158.131 16.7358 156.809 19.8187 154.167 22.4612C151.634 24.9936 148.551 26.2598 144.918 26.2598ZM134.348 118.747V36.1691H155.653V118.747H134.348Z" fill="#111111"/>
<path d="M196.458 50.3725C198.44 45.0876 201.688 41.1238 206.202 38.4813C210.827 35.8388 215.947 34.5176 221.562 34.5176V58.3C215.066 57.5293 209.23 58.8505 204.055 62.2638C198.991 65.677 196.458 71.3473 196.458 79.2748V118.747H175.153V36.1691H196.458V50.3725Z" fill="#111111"/>
<path d="M325.353 33.857C334.822 33.857 342.364 36.9399 347.98 43.1057C353.705 49.2715 356.568 57.5293 356.568 67.8791V118.747H335.263V69.3655C335.263 64.4108 334.052 60.5571 331.629 57.8046C329.207 55.052 325.794 53.6757 321.39 53.6757C316.545 53.6757 312.747 55.2722 309.994 58.4652C307.351 61.6582 306.03 66.2825 306.03 72.3383V118.747H284.725V69.3655C284.725 64.4108 283.514 60.5571 281.092 57.8046C278.669 55.052 275.256 53.6757 270.852 53.6757C266.118 53.6757 262.319 55.2722 259.456 58.4652C256.704 61.6582 255.327 66.2825 255.327 72.3383V118.747H234.022V36.1691H255.327V44.9224C260.282 37.5454 267.934 33.857 278.284 33.857C288.414 33.857 295.901 37.8207 300.745 45.7482C306.25 37.8207 314.453 33.857 325.353 33.857Z" fill="#111111"/>
<path d="M437.422 36.1691H458.727V118.747H437.422V109.003C431.036 117.04 422.062 121.059 410.502 121.059C399.491 121.059 390.022 116.875 382.095 108.507C374.277 100.029 370.369 89.6796 370.369 77.4581C370.369 65.2366 374.277 54.9418 382.095 46.574C390.022 38.096 399.491 33.857 410.502 33.857C422.062 33.857 431.036 37.8757 437.422 45.9133V36.1691ZM398.115 94.304C402.409 98.598 407.859 100.745 414.465 100.745C421.072 100.745 426.522 98.598 430.816 94.304C435.22 89.8998 437.422 84.2845 437.422 77.4581C437.422 70.6317 435.22 65.0714 430.816 60.7774C426.522 56.3732 421.072 54.1711 414.465 54.1711C407.859 54.1711 402.409 56.3732 398.115 60.7774C393.821 65.0714 391.674 70.6317 391.674 77.4581C391.674 84.2845 393.821 89.8998 398.115 94.304Z" fill="#111111"/>
<path d="M523.96 33.857C532.988 33.857 540.42 36.8848 546.256 42.9405C552.201 48.9962 555.174 57.3641 555.174 68.0442V118.747H533.869V70.6867C533.869 65.1815 532.383 60.9976 529.41 58.1349C526.437 55.1621 522.473 53.6757 517.519 53.6757C512.013 53.6757 507.609 55.3823 504.306 58.7955C501.003 62.2087 499.352 67.3285 499.352 74.155V118.747H478.046V36.1691H499.352V45.4179C504.526 37.7106 512.729 33.857 523.96 33.857Z" fill="#111111"/>
</svg>
