<svg width="181" height="121" viewBox="0 0 181 121" fill="none" xmlns="http://www.w3.org/2000/svg">
<g id="Group 1">
<path id="Vector" d="M69.8117 0.681396C102.883 8.15858 120.672 30.7569 120.545 64.4162C120.476 82.8843 120.533 101.353 120.533 120.144C112.591 120.144 105.099 120.144 96.8164 120.144C96.8164 115.632 96.8167 111.156 96.8164 106.679C96.8152 90.9563 96.977 75.2312 96.7696 59.5109C96.5337 41.6289 82.7872 26.1968 65.6766 24.1835C46.5666 21.935 29.864 32.8737 25.1354 50.7344C20.4001 68.6208 29.2119 86.6315 46.2512 93.8029C48.0139 94.5448 49.8862 95.0262 52.336 95.8364C52.336 83.7602 52.336 72.3324 52.336 60.5596C59.4734 60.5596 66.128 60.5596 73.0828 60.5596C73.0828 80.2912 73.0828 99.9412 73.0824 119.592C37.2144 125.473 8.87532 104.06 1.64667 73.494C-5.89924 41.5861 14.6776 8.61348 46.7754 1.7613C54.0309 0.212379 61.7698 0.927225 69.8117 0.681396Z" fill="#3063E6"/>
<path id="Vector_2" d="M180.74 110.179C180.74 113.709 180.74 116.669 180.74 120.061C172.864 120.061 165.246 120.061 156.962 120.061C156.962 116 156.952 112.082 156.963 108.165C157.009 91.8499 157.086 75.535 157.104 59.2201C157.133 34.1035 140.207 11.1057 115.745 2.96113C114.285 2.47485 112.822 1.99465 110.924 1.36718C140.069 -5.73716 172.28 15.6695 179.225 46.4753C180.264 51.0867 180.669 55.9227 180.716 60.6613C180.88 76.9752 180.755 93.292 180.74 110.179Z" fill="#3063E6"/>
</g>
</svg>
