<svg width="10" height="13" viewBox="0 0 10 13" fill="none" xmlns="http://www.w3.org/2000/svg">
<path d="M8.53546 1.57695C6.58288 -0.525652 3.41712 -0.525652 1.46454 1.57695C1.00095 2.07276 0.632572 2.66502 0.381066 3.31892C0.129561 3.97281 0 4.67514 0 5.38464C0 6.09413 0.129561 6.79646 0.381066 7.45036C0.632572 8.10425 1.00095 8.69651 1.46454 9.19232L4.99969 13L8.53546 9.19232C8.99905 8.69651 9.36743 8.10425 9.61893 7.45036C9.87044 6.79646 10 6.09413 10 5.38464C10 4.67514 9.87044 3.97281 9.61893 3.31892C9.36743 2.66502 8.99905 2.07276 8.53546 1.57695ZM4.99969 7.18413C4.58217 7.18413 4.19028 7.00624 3.89464 6.68329C3.60197 6.36222 3.43761 5.92716 3.43761 5.47359C3.43761 5.02001 3.60197 4.58495 3.89464 4.26389C4.18965 3.94093 4.58217 3.76304 4.99969 3.76304C5.41721 3.76304 5.80972 3.94093 6.10473 4.26389C6.3974 4.58495 6.56177 5.02001 6.56177 5.47359C6.56177 5.92716 6.3974 6.36222 6.10473 6.68329C5.80972 7.00624 5.41721 7.18413 4.99969 7.18413Z" fill="#425763"/>
</svg>
